<svg width="26" height="26" viewBox="0 0 26 26" fill="none" xmlns="http://www.w3.org/2000/svg">
<path d="M3.11765 15.1818V1V15.1818ZM3.11765 15.1818C3.67928 15.1818 4.21791 15.4117 4.61505 15.8209C5.01219 16.23 5.23529 16.785 5.23529 17.3636C5.23529 17.9423 5.01219 18.4972 4.61505 18.9064C4.21791 19.3156 3.67928 19.5455 3.11765 19.5455M3.11765 15.1818C2.55601 15.1818 2.01738 15.4117 1.62024 15.8209C1.22311 16.23 1 16.785 1 17.3636C1 17.9423 1.22311 18.4972 1.62024 18.9064C2.01738 19.3156 2.55601 19.5455 3.11765 19.5455M3.11765 25V19.5455V25ZM22.8824 15.1818V1V15.1818ZM22.8824 15.1818C23.444 15.1818 23.9826 15.4117 24.3798 15.8209C24.7769 16.23 25 16.785 25 17.3636C25 17.9423 24.7769 18.4972 24.3798 18.9064C23.9826 19.3156 23.444 19.5455 22.8824 19.5455M22.8824 15.1818C22.3207 15.1818 21.7821 15.4117 21.385 15.8209C20.9878 16.23 20.7647 16.785 20.7647 17.3636C20.7647 17.9423 20.9878 18.4972 21.385 18.9064C21.7821 19.3156 22.3207 19.5455 22.8824 19.5455M22.8824 25V19.5455V25ZM13 6.45455V1V6.45455ZM13 6.45455C13.5616 6.45455 14.1003 6.68441 14.4974 7.09359C14.8945 7.50276 15.1176 8.05771 15.1176 8.63636C15.1176 9.21502 14.8945 9.76997 14.4974 10.1791C14.1003 10.5883 13.5616 10.8182 13 10.8182M13 6.45455C12.4384 6.45455 11.8997 6.68441 11.5026 7.09359C11.1055 7.50276 10.8824 8.05771 10.8824 8.63636C10.8824 9.21502 11.1055 9.76997 11.5026 10.1791C11.8997 10.5883 12.4384 10.8182 13 10.8182M13 25V10.8182V25Z" fill="#FFFEFD"/>
<path d="M3.11765 15.1818V1M3.11765 15.1818C3.67928 15.1818 4.21791 15.4117 4.61505 15.8209C5.01219 16.23 5.23529 16.785 5.23529 17.3636C5.23529 17.9423 5.01219 18.4972 4.61505 18.9064C4.21791 19.3156 3.67928 19.5455 3.11765 19.5455M3.11765 15.1818C2.55601 15.1818 2.01738 15.4117 1.62024 15.8209C1.22311 16.23 1 16.785 1 17.3636C1 17.9423 1.22311 18.4972 1.62024 18.9064C2.01738 19.3156 2.55601 19.5455 3.11765 19.5455M3.11765 19.5455V25M22.8824 15.1818V1M22.8824 15.1818C23.444 15.1818 23.9826 15.4117 24.3798 15.8209C24.7769 16.23 25 16.785 25 17.3636C25 17.9423 24.7769 18.4972 24.3798 18.9064C23.9826 19.3156 23.444 19.5455 22.8824 19.5455M22.8824 15.1818C22.3207 15.1818 21.7821 15.4117 21.385 15.8209C20.9878 16.23 20.7647 16.785 20.7647 17.3636C20.7647 17.9423 20.9878 18.4972 21.385 18.9064C21.7821 19.3156 22.3207 19.5455 22.8824 19.5455M22.8824 19.5455V25M13 6.45455V1M13 6.45455C13.5616 6.45455 14.1003 6.68441 14.4974 7.09359C14.8945 7.50276 15.1176 8.05771 15.1176 8.63636C15.1176 9.21502 14.8945 9.76997 14.4974 10.1791C14.1003 10.5883 13.5616 10.8182 13 10.8182M13 6.45455C12.4384 6.45455 11.8997 6.68441 11.5026 7.09359C11.1055 7.50276 10.8824 8.05771 10.8824 8.63636C10.8824 9.21502 11.1055 9.76997 11.5026 10.1791C11.8997 10.5883 12.4384 10.8182 13 10.8182M13 10.8182V25" stroke="#898989" stroke-width="1.5" stroke-linecap="round" stroke-linejoin="round"/>
</svg>
