<svg width="20" height="21" viewBox="0 0 20 21" fill="none" xmlns="http://www.w3.org/2000/svg">
<path d="M10 20.5C8.63333 20.5 7.34167 20.2373 6.125 19.712C4.90833 19.1867 3.84567 18.47 2.937 17.562C2.029 16.654 1.31233 15.5917 0.787001 14.375C0.261668 13.1583 -0.000665399 11.8667 1.26743e-06 10.5C1.26743e-06 9.11667 0.262668 7.82067 0.788001 6.612C1.31333 5.40333 2.03 4.34533 2.938 3.438C3.846 2.52933 4.908 1.81267 6.124 1.288C7.34 0.763333 8.632 0.500667 10 0.5C11.3833 0.5 12.6793 0.762667 13.888 1.288C15.0967 1.81333 16.1547 2.53 17.062 3.438C17.9707 4.346 18.6873 5.40433 19.212 6.613C19.7367 7.82167 19.9993 9.11733 20 10.5V11.95C20 12.9333 19.6627 13.771 18.988 14.463C18.3133 15.155 17.484 15.5007 16.5 15.5C15.9 15.5 15.3417 15.3667 14.825 15.1C14.3083 14.8333 13.8833 14.4833 13.55 14.05C13.1 14.5 12.5707 14.8543 11.962 15.113C11.3533 15.3717 10.6993 15.5007 10 15.5C8.61667 15.5 7.43733 15.0123 6.462 14.037C5.48667 13.0617 4.99933 11.8827 5 10.5C5 9.11667 5.48767 7.93733 6.463 6.962C7.43833 5.98667 8.61733 5.49933 10 5.5C11.3833 5.5 12.5627 5.98767 13.538 6.963C14.5133 7.93833 15.0007 9.11733 15 10.5V11.95C15 12.4333 15.15 12.8123 15.45 13.087C15.75 13.3617 16.1 13.4993 16.5 13.5C16.9 13.5 17.25 13.3623 17.55 13.087C17.85 12.8117 18 12.4327 18 11.95V10.5C18 8.31667 17.2123 6.43733 15.637 4.862C14.0617 3.28667 12.1827 2.49933 10 2.5C7.81667 2.5 5.93734 3.28767 4.362 4.863C2.78667 6.43833 1.99933 8.31733 2 10.5C2 12.6833 2.78767 14.5627 4.363 16.138C5.93833 17.7133 7.81733 18.5007 10 18.5H15V20.5H10ZM10 13.5C10.8333 13.5 11.5417 13.2083 12.125 12.625C12.7083 12.0417 13 11.3333 13 10.5C13 9.66667 12.7083 8.95833 12.125 8.375C11.5417 7.79167 10.8333 7.5 10 7.5C9.16667 7.5 8.45833 7.79167 7.875 8.375C7.29167 8.95833 7 9.66667 7 10.5C7 11.3333 7.29167 12.0417 7.875 12.625C8.45833 13.2083 9.16667 13.5 10 13.5Z" fill="#323232"/>
</svg>
