<svg width="24" height="24" viewBox="0 0 24 24" fill="none" xmlns="http://www.w3.org/2000/svg">
<rect width="24" height="24" fill="#6D6D6D"/>
<rect width="1504" height="1155" transform="translate(-41 -574)" fill="#FFFEFD"/>
<rect x="-40.5" y="-573.5" width="301" height="1023" fill="#FFFEFD" stroke="#DED9D9"/>
<path d="M0.857143 0C1.33053 0 1.71429 0.383756 1.71429 0.857143V19.7143C1.71429 20.3963 1.9852 21.0503 2.46744 21.5326C2.94968 22.0148 3.60373 22.2857 4.28571 22.2857H23.1429C23.6162 22.2857 24 22.6695 24 23.1429C24 23.6162 23.6162 24 23.1429 24H4.28571C3.14907 24 2.05898 23.5485 1.25526 22.7447C0.451529 21.941 0 20.8509 0 19.7143V0.857143C0 0.383756 0.383756 0 0.857143 0Z" fill="#898989"/>
<path d="M19.3592 6.85714L12.8571 13.3592L10.0347 10.5368C9.69993 10.202 9.15722 10.202 8.82248 10.5368L3.67962 15.6796C3.34489 16.0144 3.34489 16.5571 3.67962 16.8918C4.01436 17.2265 4.55707 17.2265 4.89181 16.8918L9.42857 12.355L12.2511 15.1775C12.5858 15.5123 13.1285 15.5123 13.4632 15.1775L20.5714 8.06933V11.1429C20.5714 11.6162 20.9552 12 21.4286 12C21.902 12 22.2857 11.6162 22.2857 11.1429V6.00084C22.2857 6.00056 22.2857 6.00112 22.2857 6.00084C22.2857 5.98713 22.2854 5.97258 22.2847 5.95888C22.2801 5.86103 22.2587 5.76383 22.2207 5.6719C22.1788 5.5708 22.1168 5.47609 22.0347 5.39391C21.9525 5.31173 21.8578 5.24972 21.7567 5.2079C21.6556 5.16599 21.5448 5.14286 21.4286 5.14286H16.2857C15.8123 5.14286 15.4286 5.52661 15.4286 6C15.4286 6.47339 15.8123 6.85714 16.2857 6.85714H19.3592Z" fill="#898989"/>
</svg>
