<svg width="25" height="24" viewBox="0 0 25 24" fill="none" xmlns="http://www.w3.org/2000/svg">
<path d="M6.61629 13.4401C6.08829 13.4401 5.63645 13.2519 5.26077 12.8756C4.88445 12.4999 4.69629 12.0481 4.69629 11.5201C4.69629 10.9921 4.88445 10.5399 5.26077 10.1636C5.63645 9.78794 6.08829 9.6001 6.61629 9.6001C7.14429 9.6001 7.59613 9.78794 7.97181 10.1636C8.34813 10.5399 8.53629 10.9921 8.53629 11.5201C8.53629 12.0481 8.34813 12.4999 7.97181 12.8756C7.59613 13.2519 7.14429 13.4401 6.61629 13.4401ZM12.3763 13.4401C11.8483 13.4401 11.3964 13.2519 11.0208 12.8756C10.6444 12.4999 10.4563 12.0481 10.4563 11.5201C10.4563 10.9921 10.6444 10.5399 11.0208 10.1636C11.3964 9.78794 11.8483 9.6001 12.3763 9.6001C12.9043 9.6001 13.3564 9.78794 13.7328 10.1636C14.1084 10.5399 14.2963 10.9921 14.2963 11.5201C14.2963 12.0481 14.1084 12.4999 13.7328 12.8756C13.3564 13.2519 12.9043 13.4401 12.3763 13.4401ZM18.1363 13.4401C17.6083 13.4401 17.1561 13.2519 16.7798 12.8756C16.4041 12.4999 16.2163 12.0481 16.2163 11.5201C16.2163 10.9921 16.4041 10.5399 16.7798 10.1636C17.1561 9.78794 17.6083 9.6001 18.1363 9.6001C18.6643 9.6001 19.1164 9.78794 19.4928 10.1636C19.8684 10.5399 20.0563 10.9921 20.0563 11.5201C20.0563 12.0481 19.8684 12.4999 19.4928 12.8756C19.1164 13.2519 18.6643 13.4401 18.1363 13.4401Z" fill="#898989"/>
</svg>
