<svg width="18" height="14" viewBox="0 0 18 14" fill="none" xmlns="http://www.w3.org/2000/svg">
<path d="M17.8049 0.459118L13.4745 0.980859C13.331 0.99825 13.2701 1.17434 13.3723 1.27651L14.6614 2.56565L9.74838 7.4787L7.53533 5.26783C7.39837 5.13087 7.1788 5.13304 7.04402 5.26783L0.050522 12.2635C0.0181562 12.2962 0 12.3403 0 12.3863C0 12.4323 0.0181562 12.4765 0.050522 12.5092L1.02879 13.4918C1.09618 13.5592 1.20705 13.5592 1.27444 13.4918L7.28967 7.4787L9.50055 9.68958C9.63751 9.82436 9.85707 9.82436 9.99185 9.68958L15.8919 3.79391L17.181 5.08304C17.2041 5.10603 17.2332 5.12208 17.265 5.12935C17.2967 5.13662 17.3299 5.13484 17.3607 5.12419C17.3915 5.11355 17.4187 5.09447 17.4392 5.06913C17.4597 5.0438 17.4727 5.01322 17.4767 4.98087L17.9984 0.650423C18.0136 0.539553 17.918 0.443901 17.8049 0.459118Z" fill="#FDAC15"/>
</svg>
