<svg width="24" height="20" viewBox="0 0 24 20" fill="none" xmlns="http://www.w3.org/2000/svg">
<path d="M10.1196 9.79312C9.15111 9.79312 8.20441 9.50595 7.39918 8.96791C6.59394 8.42986 5.96634 7.66513 5.59573 6.7704C5.22512 5.87567 5.12815 4.89113 5.31708 3.94129C5.50602 2.99145 5.97237 2.11897 6.65717 1.43417C7.34196 0.749375 8.21445 0.283023 9.16429 0.0940883C10.1141 -0.0948466 11.0987 0.00212161 11.9934 0.372731C12.8881 0.74334 13.6529 1.37094 14.1909 2.17618C14.7289 2.98142 15.0161 3.92811 15.0161 4.89656C15.0127 6.19415 14.4957 7.43761 13.5781 8.35515C12.6606 9.27269 11.4171 9.78968 10.1196 9.79312ZM10.1196 1.95863C9.53849 1.95863 8.97047 2.13093 8.48733 2.45376C8.00419 2.77658 7.62762 3.23543 7.40526 3.77226C7.18289 4.3091 7.12471 4.89982 7.23807 5.46973C7.35144 6.03963 7.63125 6.56312 8.04212 6.974C8.453 7.38488 8.97649 7.66469 9.5464 7.77805C10.1163 7.89141 10.707 7.83323 11.2439 7.61086C11.7807 7.3885 12.2395 7.01193 12.5624 6.52879C12.8852 6.04565 13.0575 5.47763 13.0575 4.89656C13.0575 4.11737 12.748 3.3701 12.197 2.81913C11.646 2.26816 10.8987 1.95863 10.1196 1.95863ZM0.979312 18.9334C0.719582 18.9334 0.470491 18.8302 0.286834 18.6465C0.103177 18.4629 0 18.2138 0 17.9541C0 11.7518 7.09022 11.7517 10.1196 11.7517C11.0597 11.7517 11.8954 11.7517 12.6527 11.8432C12.9103 11.8632 13.1496 11.9842 13.3183 12.1799C13.4871 12.3756 13.5717 12.63 13.5537 12.8878C13.5304 13.1465 13.4066 13.3858 13.2088 13.5542C13.0111 13.7227 12.7552 13.8069 12.496 13.7887C11.7909 13.7887 11.0075 13.7104 10.1196 13.7104C3.35578 13.7104 1.95862 15.4078 1.95862 17.9541C1.96038 18.0832 1.93625 18.2113 1.88766 18.3309C1.83906 18.4505 1.76699 18.5592 1.6757 18.6505C1.58441 18.7417 1.47576 18.8138 1.35615 18.8624C1.23654 18.911 1.1084 18.9351 0.979312 18.9334ZM12.8747 19.9257C12.615 19.9255 12.3661 19.8222 12.1826 19.6385C12.0795 19.5402 12.0001 19.4198 11.9503 19.2864C11.9006 19.1529 11.8818 19.0099 11.8954 18.8681L12.1043 16.361C12.1204 16.1305 12.2176 15.9132 12.3785 15.7473L19.5862 8.5396C20.0835 8.07891 20.7364 7.82296 21.4143 7.82296C22.0922 7.82296 22.7451 8.07891 23.2423 8.5396C23.4875 8.78672 23.6808 9.08036 23.8109 9.40327C23.9409 9.72617 24.0051 10.0718 23.9997 10.4199C24.0048 10.7407 23.9462 11.0594 23.8274 11.3575C23.7087 11.6555 23.532 11.9271 23.3076 12.1565L16.0999 19.3643C15.94 19.5282 15.7272 19.63 15.4992 19.6515L12.9661 19.8866L12.8747 19.9257ZM14.0237 16.8703L13.9454 17.8627L14.9639 17.7713L21.9235 10.8116C22.0057 10.7131 22.0477 10.5872 22.0411 10.4591C22.0406 10.2773 21.9758 10.1015 21.8582 9.96287C21.7299 9.86748 21.5742 9.81597 21.4143 9.81597C21.2544 9.81597 21.0987 9.86748 20.9703 9.96287L14.0237 16.8703Z" fill="#323232"/>
</svg>
