<svg width="19" height="16" viewBox="0 0 19 16" fill="none" xmlns="http://www.w3.org/2000/svg">
<path d="M8.17633 7.99981C7.46432 7.99981 6.76829 7.78867 6.17628 7.3931C5.58426 6.99752 5.12284 6.43528 4.85036 5.77747C4.57789 5.11965 4.50659 4.39581 4.6455 3.69748C4.78441 2.99915 5.12727 2.35769 5.63074 1.85422C6.13421 1.35075 6.77567 1.00789 7.474 0.868979C8.17233 0.730073 8.89617 0.801365 9.55399 1.07384C10.2118 1.34632 10.774 1.80774 11.1696 2.39975C11.5652 2.99177 11.7763 3.68779 11.7763 4.39981C11.7738 5.35381 11.3937 6.26801 10.7191 6.94259C10.0445 7.61717 9.13033 7.99727 8.17633 7.99981ZM8.17633 2.23981C7.74912 2.23981 7.33151 2.36649 6.9763 2.60383C6.62109 2.84118 6.34423 3.17852 6.18075 3.57321C6.01726 3.9679 5.97449 4.4022 6.05783 4.8212C6.14118 5.2402 6.3469 5.62507 6.64898 5.92716C6.95106 6.22924 7.33593 6.43496 7.75493 6.5183C8.17393 6.60165 8.60824 6.55887 9.00292 6.39539C9.39761 6.2319 9.73496 5.95505 9.9723 5.59984C10.2096 5.24463 10.3363 4.82701 10.3363 4.39981C10.3363 3.82694 10.1088 3.27753 9.70368 2.87246C9.2986 2.46738 8.7492 2.23981 8.17633 2.23981ZM1.45633 14.7198C1.26537 14.7198 1.08224 14.6439 0.947211 14.5089C0.812185 14.3739 0.736328 14.1908 0.736328 13.9998C0.736328 9.43981 5.94913 9.43981 8.17633 9.43981C8.86753 9.43981 9.48193 9.43981 10.0387 9.50701C10.2281 9.52174 10.404 9.61073 10.5281 9.75459C10.6522 9.89844 10.7144 10.0855 10.7011 10.275C10.684 10.4652 10.593 10.6411 10.4476 10.765C10.3022 10.8888 10.114 10.9507 9.92353 10.9374C9.40513 10.9374 8.82913 10.8798 8.17633 10.8798C3.20353 10.8798 2.17633 12.1278 2.17633 13.9998C2.17762 14.0947 2.15988 14.1889 2.12415 14.2769C2.08843 14.3648 2.03544 14.4447 1.96832 14.5118C1.90121 14.5789 1.82132 14.6319 1.73338 14.6676C1.64544 14.7034 1.55124 14.7211 1.45633 14.7198ZM10.2019 15.4494C10.011 15.4492 9.82802 15.3733 9.69313 15.2382C9.61732 15.166 9.55891 15.0774 9.52233 14.9793C9.48574 14.8812 9.47193 14.776 9.48193 14.6718L9.63553 12.8286C9.64739 12.6591 9.7188 12.4993 9.83713 12.3774L15.1363 7.07821C15.5019 6.7395 15.9819 6.55132 16.4803 6.55132C16.9787 6.55132 17.4587 6.7395 17.8243 7.07821C18.0046 7.25989 18.1467 7.47578 18.2423 7.71318C18.3379 7.95058 18.3851 8.2047 18.3811 8.46061C18.3849 8.69649 18.3418 8.93077 18.2545 9.14992C18.1672 9.36907 18.0373 9.56875 17.8723 9.73741L12.5731 15.0366C12.4556 15.1571 12.2991 15.2319 12.1315 15.2478L10.2691 15.4206L10.2019 15.4494ZM11.0467 13.203L10.9891 13.9326L11.7379 13.8654L16.8547 8.74861C16.9152 8.67617 16.946 8.58361 16.9411 8.48941C16.9408 8.35576 16.8932 8.22654 16.8067 8.12461C16.7124 8.05447 16.5979 8.0166 16.4803 8.0166C16.3627 8.0166 16.2483 8.05447 16.1539 8.12461L11.0467 13.203Z" fill="#898989"/>
</svg>
