<svg width="25" height="25" viewBox="0 0 25 25" fill="none" xmlns="http://www.w3.org/2000/svg">
<rect width="25" height="25" fill="#6D6D6D"/>
<rect width="1504" height="1155" transform="translate(-1100 -231)" fill="#FFFEFD"/>
<rect x="-9.75" y="-113.75" width="389.5" height="594.5" rx="4.75" stroke="#DED9D9" stroke-width="0.5"/>
<g clip-path="url(#clip0_442_2842)">
<mask id="path-2-inside-1_442_2842" fill="white">
<path d="M-20 -33H367V473H-20V-33Z"/>
</mask>
<rect width="370.213" height="71" transform="translate(-20 -23)" fill="#FFFEFD"/>
<rect x="-10" y="-9.5" width="44.2131" height="44" rx="22" fill="#FFF7E8"/>
<path d="M12.2083 0.5C12.1829 0.5 12.1473 0.5 12.1167 0.506104C11.8827 0.549342 11.603 0.765531 11.4199 1.25946C11.2266 1.75288 11.1859 2.45638 11.3537 3.20974C11.5267 3.95393 11.8827 4.59538 12.2795 4.98706C12.6661 5.37874 13.0171 5.48557 13.2511 5.44487C13.4953 5.40926 13.7649 5.18545 13.948 4.69711C14.1413 4.20675 14.1922 3.49358 14.0192 2.74633C13.8412 1.99348 13.4902 1.35814 13.0934 0.969002C12.7577 0.6231 12.4474 0.5 12.2083 0.5ZM18.0785 7.08791C17.5189 7.10317 16.8119 7.25068 16.1251 7.54063C15.3316 7.88653 14.7212 8.34943 14.3855 8.7869C14.0497 9.2091 14.0192 9.52957 14.126 9.71778C14.2379 9.90599 14.5482 10.084 15.1434 10.1095C15.7385 10.1451 16.5423 9.99755 17.3307 9.66182C18.1192 9.32101 18.7397 8.85302 19.0755 8.42573C19.4112 8.00353 19.4366 7.67289 19.3298 7.48468C19.223 7.29138 18.9076 7.12351 18.3125 7.10317C18.2311 7.08791 18.1599 7.08791 18.0785 7.08791ZM11.1452 11.8135C10.8094 11.8186 10.5042 11.8593 10.2295 11.9305C9.6293 12.0831 9.2834 12.3578 9.17149 12.6885C9.04432 13.0191 9.17149 13.4159 9.56826 13.8432C9.98538 14.2603 10.6721 14.6621 11.5267 14.886C12.3762 15.1098 13.1951 15.1047 13.8056 14.9419C14.4211 14.7842 14.767 14.5044 14.8789 14.1789C14.9959 13.8483 14.8789 13.4566 14.4668 13.0242C14.065 12.6071 13.3783 12.2052 12.5237 11.9865C12.0404 11.8593 11.5674 11.8085 11.1452 11.8135ZM19.3196 14.769L16.176 16.2594C16.3896 16.2696 16.9238 16.2848 16.9238 16.2848L17.2595 16.7274L20.042 15.2776L19.3196 14.769ZM16.5473 14.774L13.6275 16.1577C13.9073 16.1729 14.5686 16.1831 14.8331 16.1984L17.3663 14.9979L16.5473 14.774ZM21.2577 15.3234L17.6715 17.2259L18.4091 18.1771L22.1988 15.9084L21.2577 15.3234ZM7.07573 15.7863C6.9217 15.786 6.76813 15.8031 6.61792 15.8372C2.98086 16.6765 0.834234 16.7477 0.198385 16.7477H0V22.216C0 22.216 0.590068 22.1296 1.57182 22.1245C3.46919 22.1245 6.81122 22.45 10.0668 24.3525C10.2397 24.4593 10.6111 24.5 11.0739 24.5C12.31 24.5 14.1871 24.205 14.6194 24.0422C18.9737 22.4093 24.2131 17.9279 24.2131 17.9279L22.5599 16.4832C22.5599 16.4832 18.5007 19.0724 17.9869 19.3216C13.3528 21.5954 9.59878 20.1762 9.59878 20.1762C9.59878 20.1762 15.6978 20.3288 17.6563 18.7875L16.5066 17.058C16.5066 17.058 12.2948 16.941 10.7942 16.7426C10.0108 16.6409 8.31691 15.7863 7.07573 15.7863Z" fill="#FDAC15"/>
</g>
<path d="M-20 -32.5H367V-33.5H-20V-32.5Z" fill="#DED9D9" mask="url(#path-2-inside-1_442_2842)"/>
<defs>
<clipPath id="clip0_442_2842">
<path d="M-20 -33H367V473H-20V-33Z" fill="white"/>
</clipPath>
</defs>
</svg>
