<svg width="24" height="24" viewBox="0 0 24 24" fill="none" xmlns="http://www.w3.org/2000/svg">
<path d="M23.0613 22.7188C23.0613 23.0586 22.9263 23.3845 22.686 23.6248C22.4458 23.865 22.1199 24 21.7801 24H1.28118C0.941392 24 0.615518 23.865 0.37525 23.6248C0.134982 23.3845 3.08394e-07 23.0586 3.08394e-07 22.7188V9.25359C-0.000135144 9.05835 0.0443509 8.86567 0.130061 8.69025C0.21577 8.51484 0.340436 8.36133 0.494537 8.24145L10.744 0.269937C10.9689 0.0949859 11.2457 0 11.5306 0C11.8156 0 12.0924 0.0949859 12.3173 0.269937L22.5667 8.24145C22.7208 8.36133 22.8455 8.51484 22.9312 8.69025C23.0169 8.86567 23.0614 9.05835 23.0613 9.25359V22.7188Z" fill="#898989"/>
</svg>
