<svg width="16" height="18" viewBox="0 0 16 18" fill="none" xmlns="http://www.w3.org/2000/svg">
<path d="M8.07512 9C8.57012 9 8.99402 8.8236 9.34682 8.4708C9.69962 8.118 9.87572 7.6944 9.87512 7.2C9.87512 6.705 9.69872 6.2811 9.34592 5.9283C8.99312 5.5755 8.56952 5.3994 8.07512 5.4C7.58012 5.4 7.15622 5.5764 6.80342 5.9292C6.45062 6.282 6.27452 6.7056 6.27512 7.2C6.27512 7.695 6.45152 8.1189 6.80432 8.4717C7.15712 8.8245 7.58072 9.0006 8.07512 9ZM8.07512 15.615C9.90512 13.935 11.2626 12.4086 12.1476 11.0358C13.0326 9.663 13.4751 8.4444 13.4751 7.38C13.4751 5.745 12.9537 4.4064 11.9109 3.3642C10.8681 2.322 9.58952 1.8006 8.07512 1.8C6.56012 1.8 5.28122 2.3214 4.23842 3.3642C3.19562 4.407 2.67452 5.7456 2.67512 7.38C2.67512 8.445 3.11762 9.6639 4.00262 11.0367C4.88762 12.4095 6.24512 13.9356 8.07512 15.615ZM8.07512 18C5.66012 15.945 3.85652 14.0364 2.66432 12.2742C1.47212 10.512 0.875722 8.8806 0.875122 7.38C0.875122 5.13 1.59902 3.3375 3.04682 2.0025C4.49462 0.6675 6.17072 0 8.07512 0C9.98012 0 11.6565 0.6675 13.1043 2.0025C14.5521 3.3375 15.2757 5.13 15.2751 7.38C15.2751 8.88 14.6787 10.5114 13.4859 12.2742C12.2931 14.037 10.4895 15.9456 8.07512 18Z" fill="#323232"/>
</svg>
