<svg width="20" height="15" viewBox="0 0 20 15" fill="none" xmlns="http://www.w3.org/2000/svg">
<rect width="20" height="15" fill="#6D6D6D"/>
<rect width="1504" height="1155" transform="translate(-41 -632)" fill="#FFFEFD"/>
<rect x="-40.5" y="-631.5" width="301" height="1023" fill="#FFFEFD" stroke="#DED9D9"/>
<path d="M11.75 7.75C11.0083 7.75 10.2833 7.53007 9.66661 7.11801C9.04993 6.70596 8.56928 6.12029 8.28545 5.43506C8.00162 4.74984 7.92736 3.99584 8.07205 3.26841C8.21675 2.54098 8.5739 1.8728 9.09835 1.34835C9.6228 0.823904 10.291 0.466751 11.0184 0.322057C11.7458 0.177362 12.4998 0.251625 13.1851 0.535453C13.8703 0.819282 14.456 1.29993 14.868 1.91661C15.2801 2.5333 15.5 3.25832 15.5 4C15.5 4.99456 15.1049 5.94839 14.4017 6.65165C13.6984 7.35491 12.7446 7.75 11.75 7.75ZM11.75 1.75C11.305 1.75 10.87 1.88196 10.5 2.12919C10.13 2.37643 9.84157 2.72783 9.67127 3.13896C9.50097 3.5501 9.45642 4.0025 9.54323 4.43895C9.63005 4.87541 9.84434 5.27632 10.159 5.59099C10.4737 5.90566 10.8746 6.11995 11.311 6.20677C11.7475 6.29359 12.1999 6.24903 12.611 6.07873C13.0222 5.90843 13.3736 5.62005 13.6208 5.25003C13.868 4.88002 14 4.44501 14 4C14 3.40326 13.7629 2.83097 13.341 2.40901C12.919 1.98705 12.3467 1.75 11.75 1.75ZM18.75 14.75C18.5519 14.7474 18.3626 14.6676 18.2225 14.5275C18.0824 14.3874 18.0026 14.1981 18 14C18 12.05 16.94 10.75 11.75 10.75C6.56 10.75 5.5 12.05 5.5 14C5.5 14.1989 5.42098 14.3897 5.28033 14.5303C5.13968 14.671 4.94891 14.75 4.75 14.75C4.55109 14.75 4.36032 14.671 4.21967 14.5303C4.07902 14.3897 4 14.1989 4 14C4 9.25 9.43 9.25 11.75 9.25C14.07 9.25 19.5 9.25 19.5 14C19.4974 14.1981 19.4176 14.3874 19.2775 14.5275C19.1374 14.6676 18.9481 14.7474 18.75 14.75ZM6.07 8.56H5.75C4.95435 8.48309 4.22184 8.09326 3.71362 7.47626C3.2054 6.85927 2.96309 6.06565 3.04 5.27C3.11691 4.47435 3.50675 3.74184 4.12374 3.23362C4.74074 2.7254 5.53435 2.48309 6.33 2.56C6.43202 2.56439 6.53207 2.58956 6.62402 2.63397C6.71597 2.67839 6.79788 2.74111 6.86473 2.8183C6.93158 2.89549 6.98196 2.98552 7.01279 3.08287C7.04363 3.18021 7.05425 3.28283 7.04402 3.38443C7.0338 3.48603 7.00293 3.58448 6.95331 3.67372C6.9037 3.76297 6.83638 3.84115 6.75548 3.90347C6.67459 3.96578 6.58182 4.01092 6.48286 4.03612C6.38391 4.06132 6.28085 4.06604 6.18 4.05C5.98479 4.03054 5.78766 4.05061 5.60038 4.10903C5.41311 4.16745 5.23952 4.26301 5.09 4.39C4.93813 4.51251 4.81216 4.66402 4.71945 4.83571C4.62674 5.00739 4.56914 5.19582 4.55 5.39C4.52932 5.58662 4.54798 5.78538 4.60488 5.97472C4.66179 6.16405 4.7558 6.34016 4.88145 6.4928C5.0071 6.64544 5.16186 6.77155 5.33673 6.86378C5.5116 6.956 5.70307 7.01251 5.9 7.03C6.22554 7.05785 6.55144 6.98075 6.83 6.81C6.99974 6.70524 7.20414 6.6722 7.39824 6.71815C7.59234 6.76409 7.76024 6.88526 7.865 7.055C7.96976 7.22474 8.0028 7.42914 7.95686 7.62324C7.91091 7.81734 7.78974 7.98524 7.62 8.09C7.1562 8.38582 6.61999 8.54841 6.07 8.56ZM0.75 14C0.551893 13.9974 0.362629 13.9176 0.222534 13.7775C0.0824392 13.6374 0.00258996 13.4481 0 13.25C0 10.55 0.72 8.75 4.25 8.75C4.44891 8.75 4.63968 8.82902 4.78033 8.96967C4.92098 9.11032 5 9.30109 5 9.5C5 9.69891 4.92098 9.88968 4.78033 10.0303C4.63968 10.171 4.44891 10.25 4.25 10.25C1.9 10.25 1.5 11 1.5 13.25C1.49741 13.4481 1.41756 13.6374 1.27747 13.7775C1.13737 13.9176 0.948107 13.9974 0.75 14Z" fill="#898989"/>
</svg>
