<svg width="19" height="19" viewBox="0 0 19 19" fill="none" xmlns="http://www.w3.org/2000/svg">
<path d="M4.76917 15.9289L2.45066 15.4005C2.23989 15.3565 2.07127 15.2426 1.94481 15.0588C1.81835 14.875 1.76916 14.6734 1.79727 14.4538L2.02912 11.9659L0.448322 10.0724C0.307806 9.91098 0.237549 9.72017 0.237549 9.5C0.237549 9.27983 0.307806 9.08902 0.448322 8.92756L2.02912 7.03411L1.79727 4.54621C1.76916 4.32604 1.81835 4.12407 1.94481 3.9403C2.07127 3.75654 2.23989 3.64293 2.45066 3.59948L4.76917 3.07108L5.99165 0.913428C6.10406 0.722615 6.25863 0.597853 6.45535 0.539141C6.65207 0.480429 6.84879 0.487768 7.04551 0.561158L9.23755 1.5299L11.4296 0.561158C11.6263 0.487768 11.823 0.480429 12.0198 0.539141C12.2165 0.597853 12.371 0.722615 12.4835 0.913428L13.7059 3.07108L16.0244 3.59948C16.2352 3.64352 16.4038 3.75712 16.5303 3.9403C16.6568 4.12348 16.7059 4.32545 16.6778 4.54621L16.446 7.03411L18.0268 8.92756C18.1673 9.08902 18.2375 9.27983 18.2375 9.5C18.2375 9.72017 18.1673 9.91098 18.0268 10.0724L16.446 11.9659L16.6778 14.4538C16.7059 14.674 16.6568 14.8759 16.5303 15.0597C16.4038 15.2435 16.2352 15.3571 16.0244 15.4005L13.7059 15.9289L12.4835 18.0866C12.371 18.2774 12.2165 18.4021 12.0198 18.4609C11.823 18.5196 11.6263 18.5122 11.4296 18.4388L9.23755 17.4701L7.04551 18.4388C6.84879 18.5122 6.65207 18.5196 6.45535 18.4609C6.25863 18.4021 6.10406 18.2774 5.99165 18.0866L4.76917 15.9289ZM7.76214 12.0099C7.91671 12.1714 8.11343 12.2521 8.3523 12.2521C8.59118 12.2521 8.7879 12.1714 8.94247 12.0099L12.5256 8.26706C12.6942 8.09092 12.7785 7.88191 12.7785 7.64002C12.7785 7.39812 12.6942 7.18882 12.5256 7.0121C12.357 6.83596 12.1566 6.74789 11.9245 6.74789C11.6924 6.74789 11.4923 6.83596 11.3242 7.0121L8.3523 10.1165L7.12982 8.86151C6.9612 8.70005 6.76083 8.62285 6.5287 8.62989C6.29657 8.63694 6.1035 8.72148 5.94949 8.88353C5.79493 9.04499 5.71764 9.25048 5.71764 9.5C5.71764 9.74952 5.79493 9.95502 5.94949 10.1165L7.76214 12.0099Z" fill="#FDAC15"/>
</svg>
