<svg width="17" height="19" viewBox="0 0 17 19" fill="none" xmlns="http://www.w3.org/2000/svg">
<path fill-rule="evenodd" clip-rule="evenodd" d="M9.99151 8.86762C10.3294 9.10666 10.5848 9.44433 10.7228 9.83426C10.7447 9.89627 10.754 9.96171 10.7506 10.0274C10.7472 10.0931 10.7308 10.1573 10.7025 10.2164C10.6742 10.2757 10.6344 10.3287 10.5856 10.3726C10.5367 10.4166 10.4796 10.4505 10.4178 10.4722C10.3558 10.4942 10.2901 10.5037 10.2247 10.5001C10.159 10.4967 10.0948 10.4803 10.0355 10.452C9.91582 10.3948 9.82377 10.2923 9.77982 10.1673C9.73954 10.0535 9.67923 9.94852 9.60232 9.85721C9.54763 9.79226 9.48439 9.73391 9.41407 9.6841C9.24511 9.5647 9.04343 9.50073 8.83663 9.50073V11.5009C9.36719 11.5009 9.87578 11.7116 10.2511 12.0866C10.6261 12.4619 10.8368 12.9705 10.8368 13.5011C10.8368 14.0316 10.6261 14.5402 10.2511 14.9155C9.87578 15.2905 9.36719 15.5012 8.83663 15.5012V16.0013H7.83655V15.5012C7.42294 15.5012 7.01934 15.373 6.68167 15.1342C6.34375 14.8952 6.08836 14.5575 5.95041 14.1676C5.92624 14.1051 5.91501 14.0387 5.9172 13.9718C5.91867 13.9298 5.92502 13.8883 5.93674 13.8483C5.94357 13.8246 5.95236 13.8014 5.96286 13.7787C5.9907 13.7179 6.03049 13.6634 6.08006 13.6183C6.12938 13.5733 6.18724 13.5384 6.25048 13.5162C6.31348 13.494 6.38038 13.4845 6.44703 13.4886C6.51369 13.4925 6.57912 13.5101 6.63894 13.5396C6.69876 13.5694 6.75223 13.6107 6.79594 13.6615C6.81059 13.6786 6.82426 13.6966 6.83647 13.7157C6.8604 13.7525 6.87944 13.7923 6.89287 13.8346C7.03106 14.2235 7.40145 14.5011 7.83655 14.5011V12.501C7.30599 12.501 6.7974 12.2903 6.42213 11.9152C6.0471 11.54 5.83639 11.0314 5.83639 10.5008C5.83639 9.97025 6.0471 9.46167 6.42213 9.08639C6.7974 8.71136 7.30599 8.50065 7.83655 8.50065V8.00061H8.83663V8.50065C9.25024 8.50065 9.65384 8.62884 9.99151 8.86762ZM7.12946 9.79373C7.31698 9.60621 7.57139 9.50073 7.83655 9.50073V11.5009C7.57139 11.5009 7.31698 11.3954 7.12946 11.2079C6.94195 11.0204 6.83647 10.766 6.83647 10.5008C6.83647 10.2357 6.94195 9.98124 7.12946 9.79373ZM9.54372 14.2081C9.3562 14.3957 9.10179 14.5011 8.83663 14.5011V12.501C9.10179 12.501 9.3562 12.6065 9.54372 12.794C9.64138 12.8916 9.71683 13.0074 9.76664 13.1331C9.81254 13.2491 9.83671 13.3739 9.83671 13.5011C9.83671 13.7662 9.73123 14.0206 9.54372 14.2081Z" fill="#323232"/>
<path fill-rule="evenodd" clip-rule="evenodd" d="M8.35612 0.5C6.15282 0.5 4.13971 1.21002 2.91256 1.81065C2.79073 1.87023 2.67671 1.92907 2.5705 1.9862C2.35661 2.10023 2.17715 2.20766 2.03554 2.3002L3.87065 5.00037C-0.424621 9.51978 -3.62532 18.5 8.35612 18.5C20.3376 18.5 17.0482 9.35375 12.7898 5.00037L14.6372 2.3002C14.4281 2.16054 14.131 1.98865 13.7631 1.8065L13.694 1.77305C12.4734 1.18048 10.5133 0.5 8.35612 0.5ZM13.0814 2.80268L11.6027 4.96447C9.5447 5.69598 7.11139 5.69598 5.05385 4.96325L4.09381 3.54981C4.27327 3.59644 4.45346 3.63893 4.63463 3.6775C4.74352 3.7007 4.85266 3.72243 4.96229 3.7427C6.11986 3.95634 7.36996 4.0059 8.49505 3.68068C10.0701 3.22483 11.7062 2.90181 13.0814 2.80268ZM12.1853 5.8144C9.77762 6.74563 6.88408 6.74563 4.47617 5.81537C3.51271 6.85403 2.61615 8.12855 1.97352 9.45263C1.30013 10.8414 0.939992 12.2129 1.00738 13.388C1.07208 14.5192 1.52744 15.4851 2.56512 16.2042C3.64871 16.9542 5.46282 17.4999 8.35563 17.4999C11.2453 17.4999 13.0511 16.9449 14.1247 16.1863C15.1545 15.4582 15.6057 14.4787 15.6636 13.3321C15.7237 12.144 15.3557 10.7652 14.6796 9.38622C14.0311 8.07777 13.1905 6.87381 12.1853 5.8144ZM5.14321 2.75922C4.71935 2.6806 4.30135 2.57707 3.90117 2.45817C5.02626 1.98059 6.63284 1.50008 8.35563 1.50008C9.48561 1.50008 10.5619 1.70713 11.4819 1.98401C10.3792 2.16176 9.28882 2.40738 8.21646 2.71966C7.29647 2.98629 6.2185 2.95723 5.14321 2.75922Z" fill="#323232"/>
</svg>
