<svg width="48" height="48" viewBox="0 0 48 48" fill="none" xmlns="http://www.w3.org/2000/svg">
<rect width="48" height="48" fill="#6D6D6D"/>
<rect width="1504" height="1155" transform="translate(-1315 -32)" fill="#FFFEFD"/>
<path d="M30.2059 20.9302C30.2059 19.1539 29.4994 17.4503 28.2418 16.1943C26.9842 14.9382 25.2785 14.2326 23.5 14.2326C21.7215 14.2326 20.0158 14.9382 18.7582 16.1943C17.5006 17.4503 16.7941 19.1539 16.7941 20.9302V29.8605H30.2059V20.9302ZM32.4412 30.605L32.8882 31.2C32.9505 31.2829 32.9884 31.3815 32.9977 31.4848C33.0071 31.588 32.9874 31.6918 32.941 31.7845C32.8946 31.8772 32.8232 31.9552 32.735 32.0097C32.6467 32.0642 32.545 32.093 32.4412 32.093H14.5588C14.455 32.093 14.3533 32.0642 14.265 32.0097C14.1768 31.9552 14.1054 31.8772 14.059 31.7845C14.0126 31.6918 13.9929 31.588 14.0023 31.4848C14.0116 31.3815 14.0495 31.2829 14.1118 31.2L14.5588 30.605V20.9302C14.5588 18.5618 15.5008 16.2903 17.1776 14.6156C18.8544 12.9409 21.1287 12 23.5 12C25.8713 12 28.1456 12.9409 29.8224 14.6156C31.4992 16.2903 32.4412 18.5618 32.4412 20.9302V30.605ZM20.7059 33.2093H26.2941C26.2941 33.9494 25.9997 34.6593 25.4757 35.1826C24.9517 35.706 24.241 36 23.5 36C22.759 36 22.0483 35.706 21.5243 35.1826C21.0003 34.6593 20.7059 33.9494 20.7059 33.2093Z" fill="#323232"/>
<circle cx="30.5" cy="15.5" r="7.5" fill="#FDAC15"/>
</svg>
