<svg width="159" height="98" viewBox="0 0 159 98" fill="none" xmlns="http://www.w3.org/2000/svg">
<rect width="159" height="98" fill="#6D6D6D"/>
<g clip-path="url(#clip0_442_2842)">
<rect x="-590" y="-772" width="1440" height="1024" fill="#FFFEFD"/>
<path d="M153.864 84.1535C153.334 79.9069 150.695 75.7228 146.634 74.3408C148.236 78.7118 148.235 83.5068 146.633 87.8775C146.009 89.5609 145.139 91.3684 145.726 93.065C146.092 94.1206 146.985 94.9283 147.984 95.4333C148.982 95.9383 150.091 96.179 151.185 96.4149L151.401 96.5926C153.138 92.6798 154.394 88.4001 153.864 84.1535Z" fill="#F0F0F0"/>
<path d="M146.594 74.4208C148.959 77.0635 150.429 80.3821 150.795 83.9053C150.887 84.6624 150.859 85.4292 150.712 86.1776C150.545 86.902 150.187 87.5686 149.674 88.1082C149.206 88.6208 148.668 89.0912 148.333 89.7083C148.167 90.0267 148.069 90.3767 148.048 90.7353C148.026 91.0938 148.081 91.4529 148.208 91.7889C148.504 92.6343 149.086 93.3234 149.68 93.9775C150.338 94.7038 151.034 95.4478 151.314 96.4106C151.348 96.5273 151.527 96.468 151.493 96.3515C151.006 94.6763 149.376 93.7247 148.598 92.2159C148.235 91.5118 148.083 90.6945 148.423 89.9513C148.72 89.3014 149.275 88.8159 149.753 88.3009C150.261 87.7819 150.634 87.1467 150.839 86.4509C151.024 85.7124 151.081 84.9479 151.009 84.1902C150.873 82.4817 150.469 80.805 149.811 79.2216C149.071 77.4104 148.025 75.7389 146.719 74.2794C146.638 74.1891 146.513 74.3311 146.594 74.4208Z" fill="#FFFEFD"/>
<path d="M150.744 82.7641C151.328 82.6226 151.843 82.2785 152.197 81.7934C152.55 81.3082 152.719 80.7135 152.674 80.1155C152.664 79.9945 152.475 80.0038 152.485 80.1249C152.528 80.6817 152.371 81.2356 152.041 81.6868C151.711 82.1379 151.23 82.4564 150.685 82.585C150.566 82.6131 150.626 82.792 150.744 82.7641Z" fill="#FFFEFD"/>
<path d="M149.946 87.8796C148.89 87.2511 148.111 86.2489 147.764 85.073C147.729 84.9564 147.55 85.0157 147.584 85.1321C147.948 86.3552 148.761 87.3964 149.861 88.0481C149.966 88.1101 150.05 87.9413 149.946 87.8796Z" fill="#FFFEFD"/>
<path d="M148.895 77.5892C148.681 77.6909 148.444 77.7379 148.207 77.7259C147.969 77.7138 147.739 77.6432 147.535 77.5203C147.431 77.457 147.347 77.6259 147.45 77.6888C147.676 77.8235 147.93 77.9012 148.193 77.9151C148.455 77.9289 148.717 77.8785 148.955 77.7683C148.978 77.7597 148.997 77.7427 149.008 77.7206C149.02 77.6984 149.022 77.6729 149.015 77.6492C149.007 77.6255 148.99 77.6059 148.968 77.5947C148.945 77.5834 148.919 77.5815 148.895 77.5892Z" fill="#FFFEFD"/>
<path d="M134.255 81.9256C134.319 81.967 134.383 82.0084 134.447 82.0514C135.302 82.6123 136.11 83.2415 136.863 83.9329C136.922 83.9854 136.981 84.0395 137.039 84.0937C138.835 85.7787 140.303 87.7817 141.366 90.0008C141.788 90.8843 142.143 91.7985 142.426 92.7355C142.817 94.0296 143.138 95.4638 143.912 96.5224C143.992 96.6337 144.078 96.7401 144.171 96.8407H151.167C151.183 96.8328 151.199 96.8264 151.215 96.8185L151.494 96.8312C151.483 96.7818 151.47 96.7309 151.459 96.6816C151.452 96.6529 151.444 96.6243 151.438 96.5956C151.433 96.5765 151.428 96.5574 151.425 96.5399C151.424 96.5335 151.422 96.5272 151.421 96.5224C151.417 96.5049 151.412 96.489 151.409 96.473C151.339 96.1881 151.267 95.9032 151.192 95.6182C151.192 95.6167 151.192 95.6167 151.191 95.6151C150.618 93.4454 149.858 91.3045 148.796 89.3466C148.764 89.2877 148.733 89.2272 148.697 89.1683C148.214 88.2884 147.659 87.4494 147.039 86.6596C146.698 86.2283 146.335 85.8144 145.952 85.4196C144.96 84.4015 143.814 83.5453 142.555 82.8823C140.046 81.5611 137.141 81.0549 134.459 81.862C134.391 81.8827 134.324 81.9034 134.255 81.9256Z" fill="#F0F0F0"/>
<path d="M134.271 82.0143C137.755 82.7044 140.932 84.4715 143.351 87.0648C143.882 87.6139 144.323 88.2429 144.657 88.9288C144.961 89.6075 145.077 90.3549 144.994 91.0935C144.93 91.7838 144.784 92.4824 144.889 93.1762C144.949 93.5305 145.082 93.8683 145.281 94.1675C145.481 94.4668 145.741 94.7206 146.046 94.9124C146.792 95.4099 147.673 95.6103 148.542 95.7765C149.506 95.9609 150.511 96.1373 151.316 96.738C151.413 96.8108 151.521 96.6556 151.423 96.583C150.023 95.5378 148.147 95.7572 146.615 95.0193C145.9 94.6751 145.285 94.1139 145.108 93.3163C144.953 92.6187 145.103 91.8982 145.173 91.1998C145.266 90.4805 145.18 89.7496 144.923 89.071C144.625 88.3703 144.209 87.7254 143.694 87.1638C142.555 85.881 141.22 84.7849 139.739 83.9156C138.054 82.9142 136.209 82.2075 134.286 81.8263C134.166 81.8027 134.153 81.9909 134.271 82.0143Z" fill="#FFFEFD"/>
<path d="M142.622 86.1841C143.003 85.7202 143.206 85.1363 143.196 84.5367C143.185 83.9371 142.961 83.3607 142.563 82.9106C142.483 82.8198 142.337 82.9406 142.418 83.0316C142.789 83.45 142.998 83.9869 143.006 84.5453C143.015 85.1037 142.824 85.6469 142.466 86.0767C142.388 86.1702 142.544 86.2771 142.622 86.1841Z" fill="#FFFEFD"/>
<path d="M145.072 90.7479C143.85 90.8798 142.623 90.5475 141.635 89.8171C141.538 89.7447 141.43 89.8998 141.528 89.9722C142.557 90.7302 143.834 91.0735 145.106 90.9334C145.227 90.92 145.193 90.7345 145.072 90.7479Z" fill="#FFFEFD"/>
<path d="M138.021 83.162C137.911 83.3721 137.751 83.5517 137.554 83.6847C137.357 83.8176 137.13 83.8997 136.894 83.9236C136.773 83.9355 136.807 84.121 136.928 84.1092C137.189 84.0815 137.439 83.9906 137.657 83.8442C137.875 83.6978 138.053 83.5004 138.177 83.2694C138.19 83.2486 138.195 83.2235 138.191 83.1991C138.187 83.1747 138.173 83.1529 138.153 83.1382C138.132 83.1241 138.107 83.1186 138.082 83.1231C138.058 83.1276 138.036 83.1416 138.021 83.162Z" fill="#FFFEFD"/>
<path d="M70.0253 5.18955C69.8567 5.39931 69.7362 5.6434 69.6724 5.90462C69.6085 6.16584 69.6029 6.43785 69.6559 6.70147C69.7089 6.96509 69.8192 7.21392 69.9791 7.43043C70.1389 7.64694 70.3444 7.82586 70.5811 7.9546L69.5027 14.4011L72.6155 13.0234L73.1624 7.11295C73.3529 6.70208 73.3856 6.23579 73.2545 5.80243C73.1233 5.36908 72.8372 4.99878 72.4505 4.7617C72.0639 4.52461 71.6034 4.43721 71.1564 4.51607C70.7094 4.59493 70.307 4.83455 70.0253 5.18955Z" fill="#9E616A"/>
<path d="M98.0293 94.3746L95.4841 94.3745L94.2732 84.584L98.0298 84.5841L98.0293 94.3746Z" fill="#9E616A"/>
<path d="M98.6782 96.8353L90.4712 96.835V96.7315C90.4712 95.8866 90.8078 95.0764 91.4069 94.479C92.0059 93.8816 92.8184 93.5459 93.6656 93.5459H93.6658L98.6784 93.5461L98.6782 96.8353Z" fill="#2F2E41"/>
<path d="M80.95 94.3746L78.4047 94.3745L77.1938 84.584L80.9505 84.5841L80.95 94.3746Z" fill="#9E616A"/>
<path d="M81.5991 96.8353L73.3921 96.835V96.7315C73.3921 95.8866 73.7287 95.0764 74.3278 94.479C74.9268 93.8816 75.7393 93.5459 76.5865 93.5459H76.5867L81.5993 93.5461L81.5991 96.8353Z" fill="#2F2E41"/>
<path d="M79.8891 48.689L78.9377 49.9368C78.9377 49.9368 78.8516 50.5195 77.4085 55.267L76.6169 90.951H81.4055L87.8062 62.3997L94.4492 91.5238L98.6003 91.7681L98.4051 58.6653C98.4051 58.6653 98.9294 51.8551 97.071 50.5904C95.2125 49.3257 79.8891 48.689 79.8891 48.689Z" fill="#323232"/>
<path d="M86.3108 18.7027C89.0859 18.7027 91.3356 16.4592 91.3356 13.6917C91.3356 10.9242 89.0859 8.68066 86.3108 8.68066C83.5356 8.68066 81.2859 10.9242 81.2859 13.6917C81.2859 16.4592 83.5356 18.7027 86.3108 18.7027Z" fill="#9E616A"/>
<path d="M91.366 14.4759L91.283 14.3104C91.1547 14.0545 90.0922 11.9267 89.9588 11.3796L88.6216 11.5364L85.1395 11.537L85.6233 10.8132L84.3441 10.9796C83.8765 11.0363 83.4294 11.2043 83.0406 11.4696C82.802 11.6276 82.6004 11.835 82.4493 12.0776C81.9923 12.8579 81.2942 14.1343 81.2872 14.1471L81.2204 14.2692L80.6403 13.296C80.6327 13.2583 79.9137 9.51855 82.3199 8.25026C82.444 7.9989 83.5015 6.02175 86.0008 6.1552C86.2755 5.84287 86.6625 5.65101 87.0781 5.62115C87.6489 5.59146 88.2413 5.89047 88.8363 6.51358C89.6267 7.34119 90.7092 8.47456 91.3639 9.733L91.5445 9.98995C91.8011 10.3577 91.9282 10.7999 91.9058 11.2474C92.0449 11.9615 91.9954 12.6994 91.7624 13.3888L91.366 14.4759Z" fill="#2F2E41"/>
<path d="M90.1395 19.6455L92.92 21.1781L98.3818 22.7032L96.7515 36.957L97.0481 50.9973C97.0481 50.9973 87.8029 57.3133 78.9377 49.9371V32.2643L79.4622 22.7032C79.4622 22.7032 81.5836 22.1022 82.6518 23.1389L84.6777 20.5145L90.1395 19.6455Z" fill="#898989"/>
<path d="M80.6872 24.0164L79.4621 22.7032L72.7112 21.9406L73.3447 11.6004L69.6641 8.98193L66.96 23.5389L79.4514 32.2643L80.6872 24.0164Z" fill="#898989"/>
<path d="M94.3718 55.6369C94.3214 55.3728 94.3298 55.1009 94.3962 54.8403C94.4627 54.5797 94.5856 54.3368 94.7564 54.1288C94.9271 53.9207 95.1415 53.7525 95.3845 53.636C95.6275 53.5195 95.8932 53.4576 96.1628 53.4545L98.2412 47.2563L100.343 49.9287L98.047 55.4049C98.022 55.8569 97.8317 56.2841 97.5121 56.6055C97.1925 56.9269 96.7657 57.1202 96.3127 57.1488C95.8597 57.1774 95.4119 57.0393 95.0542 56.7607C94.6965 56.482 94.4537 56.0822 94.3718 55.6369Z" fill="#9E616A"/>
<path d="M96.3297 24.3348L98.3817 22.7031C98.3817 22.7031 100.48 23.8572 101.118 25.9266C101.757 27.9959 102.874 39.7752 102.874 39.7752L99.8413 54.8972L96.4498 52.5515L98.0855 40.5711L95.2124 31.8162L96.3297 24.3348Z" fill="#898989"/>
<path d="M70.6064 0H18.8577V12.5405H70.6064V0Z" fill="#E6E6E6"/>
<path d="M20.2156 11.1863H69.2487V1.354H20.2156V11.1863Z" fill="#FFFEFD"/>
<path d="M29.5548 10.0161C31.6293 10.0161 33.311 8.33905 33.311 6.27027C33.311 4.20149 31.6293 2.52441 29.5548 2.52441C27.4803 2.52441 25.7986 4.20149 25.7986 6.27027C25.7986 8.33905 27.4803 10.0161 29.5548 10.0161Z" fill="#FDAC15"/>
<path d="M63.6658 4.80469H38.5371V5.61901H63.6658V4.80469Z" fill="#FDAC15"/>
<path d="M63.6658 6.92188H38.5371V7.73619H63.6658V6.92188Z" fill="#FDAC15"/>
<path d="M0 19.0605L43.7856 22.2455V33.7103L0 32.8995V19.0605Z" fill="#E6E6E6"/>
<path d="M1.37939 31.4389L42.8297 32.4499V23.4193L1.37939 20.647V31.4389Z" fill="#FFFEFD"/>
<path d="M10.4769 22.4936C10.9554 22.5244 11.4215 22.659 11.8425 22.8879C12.2647 23.1181 12.6393 23.4262 12.9464 23.7957C13.2654 24.1781 13.5153 24.6128 13.6849 25.0806C13.8638 25.5728 13.9551 26.0923 13.9547 26.6158C13.9566 27.1314 13.8652 27.6431 13.6849 28.1263C13.5177 28.5751 13.2672 28.9884 12.9464 29.3445C12.6383 29.6868 12.2625 29.9617 11.8425 30.1517C11.4137 30.3437 10.9467 30.4359 10.4769 30.4213C9.99606 30.406 9.52452 30.2852 9.09589 30.0674C8.66171 29.846 8.27476 29.5426 7.95652 29.1742C7.62261 28.789 7.36047 28.3474 7.18248 27.8702C6.99361 27.3662 6.89708 26.8324 6.89749 26.2944C6.8954 25.7643 6.99203 25.2385 7.18248 24.7436C7.35819 24.2866 7.62112 23.8679 7.95671 23.5108C8.27635 23.1704 8.66467 22.9015 9.09608 22.7216C9.53286 22.5415 10.0052 22.4635 10.4769 22.4936Z" fill="#E6E6E6"/>
<path d="M18.6318 25.3306L38.8058 26.379V27.141L18.6318 26.1635V25.3306Z" fill="#E6E6E6"/>
<path d="M18.6318 27.4966L38.8058 28.3602V29.1222L18.6318 28.3295V27.4966Z" fill="#E6E6E6"/>
<path d="M0 42.3502L43.7856 41.5396V53.0043L0 56.1893V42.3502Z" fill="#E6E6E6"/>
<path d="M1.37939 54.6027L42.8297 51.8304V42.8008L1.37939 43.8118V54.6027Z" fill="#FFFEFD"/>
<path d="M6.90045 48.7725C6.92171 48.2348 7.0398 47.7053 7.24908 47.2094C7.4456 46.742 7.72498 46.3138 8.07381 45.9453C8.40581 45.5931 8.80389 45.3094 9.24547 45.1103C9.6822 44.9142 10.1572 44.8173 10.636 44.8268C11.106 44.8364 11.5676 44.9523 11.986 45.1659C12.3975 45.3776 12.761 45.6714 13.0539 46.0289C13.3594 46.4014 13.5926 46.8273 13.7416 47.285C13.902 47.7768 13.9727 48.2934 13.9505 48.8101C13.9304 49.3331 13.8187 49.8485 13.6205 50.3331C13.433 50.7925 13.1661 51.2156 12.832 51.583C12.5111 51.9374 12.1248 52.2271 11.6943 52.4362C11.2644 52.6442 10.7938 52.7552 10.3159 52.7614C9.8428 52.767 9.37463 52.6645 8.94735 52.4618C8.52392 52.2592 8.14785 51.9702 7.84346 51.6135C7.52335 51.2387 7.27831 50.8062 7.12161 50.3393C6.95192 49.835 6.87695 49.3039 6.90045 48.7725Z" fill="#E6E6E6"/>
<path d="M18.6318 46.9206L38.8058 46.1279V46.8899L18.6318 47.7536V46.9206Z" fill="#E6E6E6"/>
<path d="M18.6318 49.0862L38.8058 48.1089V48.8709L18.6318 49.9193V49.0862Z" fill="#E6E6E6"/>
<path d="M157.757 97.5H65.2428C65.1784 97.5 65.1167 97.4737 65.0711 97.4268C65.0256 97.3799 65 97.3163 65 97.25C65 97.1837 65.0256 97.1201 65.0711 97.0732C65.1167 97.0263 65.1784 97 65.2428 97H157.757C157.822 97 157.883 97.0263 157.929 97.0732C157.974 97.1201 158 97.1837 158 97.25C158 97.3163 157.974 97.3799 157.929 97.4268C157.883 97.4737 157.822 97.5 157.757 97.5Z" fill="#CACACA"/>
</g>
<rect x="-589.5" y="-771.5" width="1439" height="1023" stroke="#323232"/>
<defs>
<clipPath id="clip0_442_2842">
<rect x="-590" y="-772" width="1440" height="1024" fill="white"/>
</clipPath>
</defs>
</svg>
