<svg width="24" height="21" viewBox="0 0 24 21" fill="none" xmlns="http://www.w3.org/2000/svg">
<path fill-rule="evenodd" clip-rule="evenodd" d="M3.32305 5.41527C3.32305 2.70064 5.72004 0.5 8.67688 0.5C11.6337 0.5 14.0307 2.70064 14.0307 5.41527C14.0307 8.12991 11.6337 10.3305 8.67688 10.3305C5.72004 10.3305 3.32305 8.12991 3.32305 5.41527ZM8.67688 2.19492C6.73964 2.19492 5.1692 3.63672 5.1692 5.41527C5.1692 7.19383 6.73964 8.63563 8.67688 8.63563C10.6141 8.63563 12.1846 7.19383 12.1846 5.41527C12.1846 3.63672 10.6141 2.19492 8.67688 2.19492Z" fill="#FDAC15"/>
<path d="M1.5681 14.143C2.57214 13.2212 3.93391 12.7034 5.35384 12.7034H12C13.4199 12.7034 14.7817 13.2212 15.7857 14.143C16.7897 15.0648 17.3538 16.315 17.3538 17.6186V19.6525C17.3538 20.1206 16.9405 20.5 16.4307 20.5C15.9209 20.5 15.5077 20.1206 15.5077 19.6525V17.6186C15.5077 16.7645 15.1381 15.9454 14.4803 15.3415C13.8225 14.7376 12.9303 14.3983 12 14.3983H5.35384C4.42354 14.3983 3.53135 14.7376 2.87353 15.3415C2.21571 15.9454 1.84615 16.7645 1.84615 17.6186V19.6525C1.84615 20.1206 1.43288 20.5 0.923075 20.5C0.413275 20.5 0 20.1206 0 19.6525V17.6186C0 16.315 0.564064 15.0648 1.5681 14.143Z" fill="#FDAC15"/>
<path d="M23.7296 8.04818C24.0901 7.71722 24.0901 7.18064 23.7296 6.84969C23.3692 6.51873 22.7847 6.51873 22.4242 6.84969L18.6462 10.3183L17.0835 8.88359C16.723 8.55264 16.1386 8.55264 15.7781 8.88359C15.4176 9.21455 15.4176 9.75113 15.7781 10.0821L17.9935 12.116C18.1666 12.2749 18.4014 12.3642 18.6462 12.3642C18.891 12.3642 19.1258 12.2749 19.2989 12.116L23.7296 8.04818Z" fill="#FDAC15"/>
</svg>
