<svg width="24" height="10" viewBox="0 0 24 10" fill="none" xmlns="http://www.w3.org/2000/svg">
<path d="M17.5 2.342C15.976 1.837 14.146 1.5 12 1.5C9.855 1.5 8.024 1.837 6.5 2.342M17.5 2.342C20.521 3.342 22.335 5.002 23 6L20.5 8.5L17.5 6.5V2.342ZM6.5 2.342C3.479 3.342 1.665 5.002 1 6L3.5 8.5L6.5 6.5V2.342Z" fill="#323232"/>
<path d="M17.5 2.342C15.976 1.837 14.146 1.5 12 1.5C9.855 1.5 8.024 1.837 6.5 2.342M17.5 2.342C20.521 3.342 22.335 5.002 23 6L20.5 8.5L17.5 6.5V2.342ZM6.5 2.342C3.479 3.342 1.665 5.002 1 6L3.5 8.5L6.5 6.5V2.342Z" stroke="#323232" stroke-width="2" stroke-linecap="round" stroke-linejoin="round"/>
</svg>
