<svg width="20" height="21" viewBox="0 0 20 21" fill="none" xmlns="http://www.w3.org/2000/svg">
<rect width="20" height="21" fill="#6D6D6D"/>
<rect width="1504" height="1155" transform="translate(-1102 -375)" fill="#FFFEFD"/>
<rect x="-11.75" y="-257.75" width="389.5" height="594.5" rx="4.75" stroke="#DED9D9" stroke-width="0.5"/>
<g clip-path="url(#clip0_442_2842)">
<mask id="path-2-inside-1_442_2842" fill="white">
<path d="M-22 -177H365V329H-22V-177Z"/>
</mask>
<rect width="370" height="71" transform="translate(-22 -25)" fill="#FFFEFD"/>
<rect x="-12" y="-11.5" width="44" height="44" rx="22" fill="#FFF7E8"/>
<path d="M13.7731 14.5543L19.769 8.2357L19.845 8.14284C19.9576 7.98098 20.0118 7.78106 19.9978 7.57979C19.9839 7.37852 19.9026 7.18939 19.769 7.04712L13.7731 0.731402L13.6905 0.655687C13.2105 0.269972 12.5038 0.641402 12.5038 1.32569V4.36855L12.2038 4.38998C7.45322 4.79284 4.6706 8.01427 4.00661 13.8571C3.92127 14.6071 4.72393 15.0771 5.24392 14.58C7.15189 12.7543 9.12386 11.62 11.1705 11.1657C11.4985 11.0928 11.8278 11.0371 12.1598 10.9986L12.5038 10.9657V13.96L12.5105 14.0771C12.5905 14.7243 13.3225 15.0286 13.7731 14.5543ZM12.3011 5.81427L13.8371 5.70427V2.79998L18.4317 7.63998L13.8371 12.4828V9.40141L12.0292 9.5757H12.0185C9.74785 9.83713 7.60522 10.8114 5.58258 12.4357C5.97991 10.5228 6.65857 9.08427 7.55055 8.05427C8.6572 6.7757 10.2038 5.99427 12.3011 5.81427ZM3.33328 1.92855C2.44924 1.92855 1.60141 2.30482 0.976296 2.97459C0.351184 3.64437 0 4.55278 0 5.49998V16.9286C0 17.8758 0.351184 18.7842 0.976296 19.454C1.60141 20.1237 2.44924 20.5 3.33328 20.5H13.9998C14.8838 20.5 15.7317 20.1237 16.3568 19.454C16.9819 18.7842 17.3331 17.8758 17.3331 16.9286V15.5C17.3331 15.3106 17.2628 15.1289 17.1378 14.9949C17.0128 14.861 16.8432 14.7857 16.6664 14.7857C16.4896 14.7857 16.32 14.861 16.195 14.9949C16.07 15.1289 15.9998 15.3106 15.9998 15.5V16.9286C15.9998 17.4969 15.789 18.0419 15.414 18.4438C15.0389 18.8457 14.5302 19.0714 13.9998 19.0714H3.33328C2.80286 19.0714 2.29416 18.8457 1.91909 18.4438C1.54402 18.0419 1.33331 17.4969 1.33331 16.9286V5.49998C1.33331 4.93166 1.54402 4.38661 1.91909 3.98475C2.29416 3.58288 2.80286 3.35712 3.33328 3.35712H7.33322C7.51003 3.35712 7.6796 3.28186 7.80462 3.14791C7.92964 3.01395 7.99988 2.83227 7.99988 2.64283C7.99988 2.45339 7.92964 2.27171 7.80462 2.13776C7.6796 2.0038 7.51003 1.92855 7.33322 1.92855H3.33328Z" fill="#FDAC15"/>
</g>
<path d="M-22 -176.5H365V-177.5H-22V-176.5Z" fill="#DED9D9" mask="url(#path-2-inside-1_442_2842)"/>
<defs>
<clipPath id="clip0_442_2842">
<path d="M-22 -177H365V329H-22V-177Z" fill="white"/>
</clipPath>
</defs>
</svg>
