<svg width="24" height="19" viewBox="0 0 24 19" fill="none" xmlns="http://www.w3.org/2000/svg">
<path d="M16.6941 14.26L19.4825 11.4594L22.2709 14.26L24 12.531L21.1994 9.74254L24 6.95411L22.2709 5.22504L19.4825 8.02564L16.6941 5.22504L14.965 6.95411L17.7534 9.74254L14.965 12.531L16.6941 14.26ZM12.1766 4.87192C12.1916 4.2282 12.0758 3.58812 11.8364 2.99041C11.5969 2.3927 11.2387 1.84978 10.7834 1.39448C10.3281 0.939173 9.78515 0.580957 9.18744 0.341493C8.58973 0.10203 7.94966 -0.0137043 7.30594 0.00129142C6.66222 -0.0137043 6.02214 0.10203 5.42443 0.341493C4.82672 0.580957 4.2838 0.939173 3.8285 1.39448C3.37319 1.84978 3.01498 2.3927 2.77551 2.99041C2.53605 3.58812 2.42032 4.2282 2.43531 4.87192C2.42032 5.51564 2.53605 6.15571 2.77551 6.75342C3.01498 7.35113 3.37319 7.89405 3.8285 8.34936C4.2838 8.80466 4.82672 9.16287 5.42443 9.40234C6.02214 9.6418 6.66222 9.75753 7.30594 9.74254C7.94966 9.75753 8.58973 9.6418 9.18744 9.40234C9.78515 9.16287 10.3281 8.80466 10.7834 8.34936C11.2387 7.89405 11.5969 7.35113 11.8364 6.75342C12.0758 6.15571 12.1916 5.51564 12.1766 4.87192ZM4.87062 4.87192C4.85496 4.54796 4.90723 4.22431 5.02408 3.92175C5.14092 3.61919 5.31976 3.34442 5.5491 3.11508C5.77844 2.88574 6.05321 2.7069 6.35577 2.59006C6.65833 2.47321 6.98198 2.42094 7.30594 2.4366C7.62989 2.42094 7.95355 2.47321 8.2561 2.59006C8.55866 2.7069 8.83343 2.88574 9.06277 3.11508C9.29211 3.34442 9.47095 3.61919 9.58779 3.92175C9.70464 4.22431 9.75691 4.54796 9.74125 4.87192C9.75691 5.19587 9.70464 5.51952 9.58779 5.82208C9.47095 6.12464 9.29211 6.39941 9.06277 6.62875C8.83343 6.85809 8.55866 7.03693 8.2561 7.15377C7.95355 7.27062 7.62989 7.32289 7.30594 7.30723C6.98198 7.32289 6.65833 7.27062 6.35577 7.15377C6.05321 7.03693 5.77844 6.85809 5.5491 6.62875C5.31976 6.39941 5.14092 6.12464 5.02408 5.82208C4.90723 5.51952 4.85496 5.19587 4.87062 4.87192ZM2.43531 17.0485C2.43531 16.0796 2.82018 15.1505 3.50524 14.4654C4.19031 13.7804 5.11945 13.3955 6.08828 13.3955H8.52359C9.49242 13.3955 10.4216 13.7804 11.1066 14.4654C11.7917 15.1505 12.1766 16.0796 12.1766 17.0485V18.2661H14.6119V17.0485C14.6119 16.249 14.4544 15.4573 14.1484 14.7186C13.8425 13.9799 13.394 13.3088 12.8287 12.7434C12.2633 12.1781 11.5921 11.7296 10.8535 11.4236C10.1148 11.1177 9.32312 10.9602 8.52359 10.9602H6.08828C4.47357 10.9602 2.92499 11.6016 1.78322 12.7434C0.641442 13.8852 0 15.4338 0 17.0485V18.2661H2.43531V17.0485Z" fill="#323232"/>
</svg>
