<svg width="24" height="19" viewBox="0 0 24 19" fill="none" xmlns="http://www.w3.org/2000/svg">
<path d="M16.6941 14.833L19.4825 11.9198L22.2709 14.833L24 13.0344L21.1994 10.134L24 7.2335L22.2709 5.43496L19.4825 8.34809L16.6941 5.43496L14.965 7.2335L17.7534 10.134L14.965 13.0344L16.6941 14.833ZM12.1766 5.06765C12.1916 4.39807 12.0758 3.73228 11.8364 3.11056C11.5969 2.48883 11.2387 1.92409 10.7834 1.4505C10.3281 0.976906 9.78515 0.604298 9.18744 0.355213C8.58973 0.106129 7.94966 -0.0142549 7.30594 0.0013433C6.66222 -0.0142549 6.02214 0.106129 5.42443 0.355213C4.82672 0.604298 4.2838 0.976906 3.8285 1.4505C3.37319 1.92409 3.01498 2.48883 2.77551 3.11056C2.53605 3.73228 2.42032 4.39807 2.43531 5.06765C2.42032 5.73723 2.53605 6.40302 2.77551 7.02475C3.01498 7.64647 3.37319 8.21121 3.8285 8.6848C4.2838 9.1584 4.82672 9.53101 5.42443 9.78009C6.02214 10.0292 6.66222 10.1496 7.30594 10.134C7.94966 10.1496 8.58973 10.0292 9.18744 9.78009C9.78515 9.53101 10.3281 9.1584 10.7834 8.6848C11.2387 8.21121 11.5969 7.64647 11.8364 7.02475C12.0758 6.40302 12.1916 5.73723 12.1766 5.06765ZM4.87062 5.06765C4.85496 4.73068 4.90723 4.39402 5.02408 4.07931C5.14092 3.7646 5.31976 3.47879 5.5491 3.24023C5.77844 3.00168 6.05321 2.81566 6.35577 2.69412C6.65833 2.57258 6.98198 2.51821 7.30594 2.5345C7.62989 2.51821 7.95355 2.57258 8.2561 2.69412C8.55866 2.81566 8.83343 3.00168 9.06277 3.24023C9.29211 3.47879 9.47095 3.7646 9.58779 4.07931C9.70464 4.39402 9.75691 4.73068 9.74125 5.06765C9.75691 5.40462 9.70464 5.74128 9.58779 6.05599C9.47095 6.37071 9.29211 6.65652 9.06277 6.89507C8.83343 7.13363 8.55866 7.31965 8.2561 7.44119C7.95355 7.56273 7.62989 7.6171 7.30594 7.60081C6.98198 7.6171 6.65833 7.56273 6.35577 7.44119C6.05321 7.31965 5.77844 7.13363 5.5491 6.89507C5.31976 6.65652 5.14092 6.37071 5.02408 6.05599C4.90723 5.74128 4.85496 5.40462 4.87062 5.06765ZM2.43531 17.7334C2.43531 16.7257 2.82018 15.7592 3.50524 15.0466C4.19031 14.334 5.11945 13.9337 6.08828 13.9337H8.52359C9.49242 13.9337 10.4216 14.334 11.1066 15.0466C11.7917 15.7592 12.1766 16.7257 12.1766 17.7334V19H14.6119V17.7334C14.6119 16.9018 14.4544 16.0783 14.1484 15.3099C13.8425 14.5416 13.394 13.8435 12.8287 13.2554C12.2633 12.6673 11.5921 12.2009 10.8535 11.8826C10.1148 11.5643 9.32312 11.4005 8.52359 11.4005H6.08828C4.47357 11.4005 2.92499 12.0677 1.78322 13.2554C0.641442 14.443 0 16.0538 0 17.7334V19H2.43531V17.7334Z" fill="#FDAC15"/>
</svg>
