<svg width="24" height="25" viewBox="0 0 24 25" fill="none" xmlns="http://www.w3.org/2000/svg">
<path d="M10.1333 18.1957L19.5333 8.7957L17.6667 6.92904L10.1333 14.4624L6.33333 10.6624L4.46667 12.529L10.1333 18.1957ZM2.66667 24.5957C1.93334 24.5957 1.30534 24.3344 0.782669 23.8117C0.260002 23.289 -0.000886625 22.6615 2.26372e-06 21.929V3.26237C2.26372e-06 2.52904 0.261336 1.90104 0.784002 1.37837C1.30667 0.855705 1.93422 0.594817 2.66667 0.595705H21.3333C22.0667 0.595705 22.6947 0.857039 23.2173 1.37971C23.74 1.90237 24.0009 2.52993 24 3.26237V21.929C24 22.6624 23.7387 23.2904 23.216 23.813C22.6933 24.3357 22.0658 24.5966 21.3333 24.5957H2.66667ZM2.66667 21.929H21.3333V3.26237H2.66667V21.929Z" fill="#FDAC15"/>
</svg>
