<svg width="17" height="18" viewBox="0 0 17 18" fill="none" xmlns="http://www.w3.org/2000/svg">
<rect width="17" height="18" fill="#6D6D6D"/>
<rect x="-682.5" y="-271.5" width="1461" height="1261" fill="#FFFEFD"/>
<rect x="-682.5" y="-271.5" width="1461" height="1261" stroke="#323232"/>
<rect x="-360.5" y="-143.5" width="1101" height="953" rx="4.5" fill="#FFFEFD" stroke="#323232"/>
<path d="M3.37502 12.3751H2.25002V13.5001H3.37502V12.3751Z" fill="#323232"/>
<path d="M5.62504 12.3751H4.50003V13.5001H5.62504V12.3751Z" fill="#323232"/>
<path d="M3.37502 14.6251H2.25002V15.7501H3.37502V14.6251Z" fill="#323232"/>
<path d="M5.62504 14.6251H4.50003V15.7501H5.62504V14.6251Z" fill="#323232"/>
<path d="M10.1251 10.1251H9.00006V11.2501H10.1251V10.1251Z" fill="#323232"/>
<path d="M12.3751 10.1251H11.2501V11.2501H12.3751V10.1251Z" fill="#323232"/>
<path d="M10.1251 12.3751H9.00006V13.5001H10.1251V12.3751Z" fill="#323232"/>
<path d="M12.3751 12.3751H11.2501V13.5001H12.3751V12.3751Z" fill="#323232"/>
<path d="M14.6251 10.1251H13.5001V11.2501H14.6251V10.1251Z" fill="#323232"/>
<path d="M14.6251 12.3751H13.5001V13.5001H14.6251V12.3751Z" fill="#323232"/>
<path d="M10.1251 7.87506H9.00006V9.00007H10.1251V7.87506Z" fill="#323232"/>
<path d="M12.3751 7.87506H11.2501V9.00007H12.3751V7.87506Z" fill="#323232"/>
<path d="M14.6251 7.87506H13.5001V9.00007H14.6251V7.87506Z" fill="#323232"/>
<path d="M10.1251 5.62504H9.00006V6.75005H10.1251V5.62504Z" fill="#323232"/>
<path d="M12.3751 5.62504H11.2501V6.75005H12.3751V5.62504Z" fill="#323232"/>
<path d="M14.6251 5.62504H13.5001V6.75005H14.6251V5.62504Z" fill="#323232"/>
<path d="M14.6251 3.37502H13.5001V4.50003H14.6251V3.37502Z" fill="#323232"/>
<path fill-rule="evenodd" clip-rule="evenodd" d="M16.8039 0.288683C16.7572 0.205008 16.69 0.134637 16.6085 0.0842433C16.5269 0.0337094 16.4337 0.00490545 16.3378 0.000573169C16.2419 -0.00375911 16.1465 0.0165244 16.0606 0.0594932L7.06055 4.55953C6.96724 4.60629 6.88877 4.67809 6.83393 4.7669C6.7791 4.85571 6.75005 4.95803 6.75005 5.0624V8.59493L0.384753 10.7167C0.27279 10.754 0.175391 10.8255 0.106341 10.9212C0.0372919 11.0169 8.96032e-05 11.1319 0 11.25V17.4375C0 17.5867 0.0592637 17.7298 0.164754 17.8352C0.270244 17.9407 0.413319 18 0.562504 18H10.6876C10.8368 18 10.9798 17.9407 11.0853 17.8352C11.1908 17.7298 11.2501 17.5867 11.2501 17.4375V15.75H12.3751V17.4375C12.3751 17.5867 12.4344 17.7298 12.5398 17.8352C12.6453 17.9407 12.7884 18 12.9376 18H16.3126C16.4618 18 16.6049 17.9407 16.7104 17.8352C16.8159 17.7298 16.8751 17.5867 16.8751 17.4375V0.562372C16.8751 0.466566 16.8506 0.372359 16.8039 0.288683ZM1.12501 11.655L6.75005 9.78069V16.875H1.12501V11.655ZM10.1251 15.1875V16.875H7.87506V5.41003L15.7501 1.4725V16.875H13.5001V15.1875C13.5001 15.0383 13.4408 14.8952 13.3353 14.7897C13.2299 14.6842 13.0868 14.625 12.9376 14.625H10.6876C10.5384 14.625 10.3953 14.6842 10.2898 14.7897C10.1843 14.8952 10.1251 15.0383 10.1251 15.1875Z" fill="#323232"/>
</svg>
